<?xml version="1.0" encoding="UTF-8" standalone="no"?>
<svg
   xmlns:dc="http://purl.org/dc/elements/1.1/"
   xmlns:cc="http://creativecommons.org/ns#"
   xmlns:rdf="http://www.w3.org/1999/02/22-rdf-syntax-ns#"
   xmlns:svg="http://www.w3.org/2000/svg"
   xmlns="http://www.w3.org/2000/svg"
   xmlns:sodipodi="http://sodipodi.sourceforge.net/DTD/sodipodi-0.dtd"
   xmlns:inkscape="http://www.inkscape.org/namespaces/inkscape"
   width="400mm"
   height="400mm"
   viewBox="0 0 400 400"
   version="1.1"
   id="svg8"
   inkscape:version="0.92.4 (5da689c313, 2019-01-14)"
   sodipodi:docname="Logo.svg">
  <defs
     id="defs2" />
  <sodipodi:namedview
     id="base"
     pagecolor="#ffffff"
     bordercolor="#666666"
     borderopacity="1.0"
     inkscape:pageopacity="0.0"
     inkscape:pageshadow="2"
     inkscape:zoom="0.35"
     inkscape:cx="-105.71429"
     inkscape:cy="560"
     inkscape:document-units="mm"
     inkscape:current-layer="svg8"
     showgrid="false"
     inkscape:window-width="1616"
     inkscape:window-height="1149"
     inkscape:window-x="96"
     inkscape:window-y="96"
     inkscape:window-maximized="0" />
  <metadata
     id="metadata5">
    <rdf:RDF>
      <cc:Work
         rdf:about="">
        <dc:format>image/svg+xml</dc:format>
        <dc:type
           rdf:resource="http://purl.org/dc/dcmitype/StillImage" />
        <dc:title />
      </cc:Work>
    </rdf:RDF>
  </metadata>
  <g
     id="svgg"
     style="fill:#659157;fill-opacity:1;stroke:#659157;stroke-opacity:1">
    <path
       id="path0"
       d="M191.613 4.973 C 188.065 6.972,174.419 14.871,161.290 22.526 C 148.161 30.181,131.032 40.043,123.226 44.443 C 115.419 48.842,100.613 57.378,90.323 63.411 C 80.032 69.445,66.387 77.187,60.000 80.616 C 53.613 84.045,43.452 89.809,37.419 93.425 L 26.452 100.000 26.131 180.000 C 25.955 224.000,26.245 268.963,26.776 279.917 L 27.742 299.834 40.000 307.099 C 46.742 311.094,60.677 319.185,70.968 325.078 C 81.258 330.971,94.272 338.481,99.888 341.767 C 105.504 345.053,114.213 349.952,119.243 352.654 C 124.272 355.355,133.613 360.764,140.000 364.673 C 161.225 377.664,199.160 398.814,200.558 398.436 C 202.280 397.972,243.944 374.405,256.129 367.003 C 261.097 363.986,275.323 355.725,287.742 348.645 C 334.151 322.190,369.729 301.625,371.298 300.346 C 372.579 299.303,372.850 278.178,372.589 199.690 L 372.258 100.354 360.645 93.483 C 354.258 89.704,338.581 80.534,325.806 73.106 C 304.471 60.698,288.491 51.455,224.352 14.423 C 198.709 -0.383,200.301 0.077,191.613 4.973 M223.671 26.240 C 236.555 33.575,260.452 47.320,276.774 56.785 C 293.097 66.250,318.146 80.738,332.439 88.980 C 346.732 97.222,359.362 104.741,360.504 105.690 C 362.380 107.246,362.580 116.490,362.563 200.601 L 362.544 293.787 346.756 302.886 C 338.072 307.891,318.484 319.216,303.226 328.052 C 287.968 336.888,263.581 350.958,249.032 359.317 C 234.484 367.676,217.855 377.347,212.079 380.806 C 200.700 387.622,199.290 388.004,195.448 385.314 C 194.049 384.334,176.935 374.358,157.419 363.145 C 125.414 344.757,96.633 328.166,52.581 302.711 L 37.419 293.950 37.419 200.026 L 37.419 106.103 59.677 93.464 C 71.919 86.513,87.452 77.545,94.194 73.537 C 100.935 69.528,116.323 60.612,128.387 53.724 C 140.452 46.835,161.065 34.895,174.194 27.189 C 187.323 19.484,198.555 13.117,199.155 13.041 C 199.754 12.965,210.787 18.905,223.671 26.240 M187.742 31.382 C 181.355 35.153,167.129 43.392,156.129 49.691 C 131.630 63.718,95.101 84.814,68.387 100.362 L 48.387 112.003 48.056 199.749 L 47.724 287.496 68.701 299.722 C 107.274 322.206,162.599 354.265,190.028 370.028 L 200.055 375.790 213.899 367.703 C 230.095 358.240,263.470 338.983,314.839 309.462 L 351.613 288.328 351.944 200.392 L 352.276 112.456 344.848 108.047 C 335.437 102.461,299.036 81.442,281.290 71.347 C 273.839 67.107,259.323 58.727,249.032 52.723 C 224.533 38.429,200.211 24.515,199.734 24.521 C 199.525 24.524,194.129 27.611,187.742 31.382 M218.386 47.876 C 234.363 56.962,252.638 67.554,303.871 97.423 C 310.258 101.147,321.000 107.345,327.742 111.198 L 340.000 118.202 340.343 153.940 C 340.532 173.595,340.426 189.677,340.108 189.677 C 339.227 189.677,289.832 162.478,288.600 161.315 C 288.008 160.756,288.709 156.021,290.157 150.794 C 291.606 145.567,293.190 138.177,293.678 134.373 L 294.564 127.456 290.185 128.402 C 285.070 129.508,269.065 135.718,261.873 139.387 C 254.954 142.916,254.950 142.915,238.665 133.803 L 224.130 125.670 222.337 118.662 C 218.667 104.323,203.005 70.968,199.941 70.968 C 197.021 70.968,184.858 94.600,180.018 109.677 C 178.081 115.710,176.026 121.874,175.451 123.377 C 173.627 128.141,146.071 142.627,142.015 140.954 C 140.197 140.204,134.065 137.550,128.387 135.057 C 122.710 132.563,114.952 129.619,111.148 128.515 L 104.231 126.506 105.082 132.608 C 105.551 135.964,107.135 143.625,108.604 149.633 L 111.274 160.555 108.373 162.536 C 106.777 163.625,95.240 170.143,82.736 177.020 L 60.000 189.523 59.635 154.439 C 59.298 122.032,59.446 119.224,61.571 117.644 C 62.836 116.703,83.032 104.849,106.452 91.301 C 129.871 77.753,160.355 60.112,174.194 52.098 C 188.032 44.085,199.499 37.504,199.676 37.474 C 199.853 37.444,208.272 42.125,218.386 47.876 M204.980 103.636 C 213.995 125.289,217.458 145.656,216.155 169.353 C 215.255 185.722,215.265 185.809,218.222 186.903 C 222.556 188.506,225.054 187.434,227.756 182.811 C 236.390 168.042,280.000 136.628,280.000 145.178 C 280.000 161.106,256.420 193.640,237.609 203.666 C 223.518 211.176,226.841 218.771,243.226 216.505 C 258.034 214.458,289.704 220.370,291.318 225.484 C 292.812 230.212,267.533 236.129,245.842 236.129 L 229.614 236.129 228.355 239.439 C 227.663 241.259,227.097 242.933,227.097 243.158 C 227.097 243.382,230.500 247.013,234.661 251.225 C 241.802 258.455,249.199 272.258,246.481 273.281 C 239.952 275.737,212.090 255.628,202.202 241.322 L 199.995 238.128 195.804 243.258 C 183.654 258.129,167.720 269.875,155.806 272.743 C 148.898 274.407,156.226 257.597,165.845 249.715 C 177.401 240.246,173.708 236.137,153.613 236.107 C 134.316 236.078,107.097 230.017,107.097 225.749 C 107.097 221.234,141.236 214.652,155.025 216.509 C 173.774 219.035,176.182 211.521,159.648 202.082 C 141.695 191.833,124.456 168.099,119.494 146.799 C 117.142 136.703,155.662 161.454,168.226 178.111 C 181.411 195.594,183.700 193.021,183.861 160.531 C 183.995 133.648,186.360 121.074,194.765 102.536 C 199.527 92.034,200.180 92.105,204.980 103.636 M171.963 151.290 C 171.580 157.145,171.088 162.143,170.870 162.398 C 170.373 162.977,156.122 150.737,156.149 149.754 C 156.169 149.022,170.258 140.915,171.813 140.740 C 172.279 140.688,172.346 145.435,171.963 151.290 M236.556 145.161 C 245.094 149.683,245.118 148.876,236.208 156.741 C 229.929 162.285,229.090 162.680,228.234 160.500 C 226.906 157.118,226.854 140.333,228.173 140.860 C 228.765 141.097,232.537 143.032,236.556 145.161 M121.147 178.853 C 123.529 182.835,129.264 190.107,133.891 195.012 C 138.519 199.918,142.077 204.124,141.798 204.359 C 141.519 204.593,136.645 205.507,130.968 206.388 C 125.290 207.269,115.339 209.966,108.854 212.382 C 94.597 217.692,95.820 217.666,87.623 212.833 C 83.947 210.665,77.389 207.100,73.050 204.909 L 65.161 200.926 68.774 198.228 C 72.229 195.647,114.768 171.806,116.150 171.676 C 116.517 171.641,118.765 174.871,121.147 178.853 M307.663 184.576 C 338.370 201.348,337.439 199.245,318.648 209.397 L 303.051 217.823 294.999 214.173 C 286.153 210.162,275.284 207.142,264.839 205.794 C 257.323 204.823,256.785 204.113,260.841 200.523 C 264.665 197.138,277.581 180.605,280.263 175.664 C 283.055 170.517,280.254 169.605,307.663 184.576 M79.355 221.050 C 85.742 224.618,94.354 229.814,98.492 232.598 C 112.789 242.213,129.868 247.742,145.274 247.742 L 150.966 247.742 146.625 256.452 C 142.526 264.677,140.401 271.349,138.819 280.968 L 138.129 285.161 145.605 285.161 C 153.724 285.161,164.133 282.515,172.223 278.395 L 177.348 275.784 185.447 280.150 L 193.545 284.516 193.547 321.723 L 193.548 358.930 188.065 355.816 C 182.725 352.784,167.320 343.919,96.774 303.282 C 77.968 292.449,61.855 282.998,60.968 282.280 C 59.748 281.293,59.355 272.346,59.355 245.615 L 59.355 210.256 63.548 212.410 C 65.855 213.594,72.968 217.482,79.355 221.050 M340.645 246.129 L 340.645 281.935 310.645 299.234 C 294.145 308.748,271.073 322.016,259.373 328.719 C 247.673 335.422,231.307 344.912,223.005 349.808 C 214.702 354.704,207.581 358.710,207.180 358.710 C 206.780 358.710,206.452 341.915,206.452 321.387 L 206.452 284.065 213.871 279.988 C 220.557 276.314,221.673 276.066,225.161 277.483 C 244.762 285.448,260.645 287.863,260.645 282.877 C 260.645 278.422,255.249 261.209,251.957 255.159 C 247.944 247.786,247.115 248.530,261.290 246.781 C 276.237 244.936,287.726 241.294,297.419 235.330 C 314.935 224.551,338.773 210.495,339.677 210.412 C 340.210 210.363,340.645 226.435,340.645 246.129 M206.425 262.554 C 209.545 265.732,211.843 268.545,211.532 268.803 C 211.222 269.062,208.476 270.646,205.432 272.323 L 199.895 275.373 194.141 272.229 C 187.169 268.420,187.117 267.861,193.165 261.667 C 199.168 255.520,199.547 255.545,206.425 262.554 "
       style="opacity:1, fill;stroke:#659157;stroke-linecap:round;stroke-linejoin:round;stroke-miterlimit:4;stroke-dasharray:none;stroke-opacity:1;fill:#659157;fill-opacity:1" />
  </g>
</svg>
